<svg width="24" height="28" viewBox="0 0 24 28" fill="none" xmlns="http://www.w3.org/2000/svg">
<path d="M12 28C13.6667 28 15.2276 27.6836 16.6827 27.0507C18.1387 26.4169 19.4053 25.5609 20.4827 24.4827C21.5609 23.4053 22.4169 22.1387 23.0507 20.6827C23.6836 19.2276 24 17.6667 24 16H21.3333C21.3333 18.6 20.4276 20.8053 18.616 22.616C16.8053 24.4276 14.6 25.3333 12 25.3333C9.4 25.3333 7.19467 24.4276 5.384 22.616C3.57244 20.8053 2.66667 18.6 2.66667 16C2.66667 13.4 3.57244 11.1942 5.384 9.38267C7.19467 7.572 9.4 6.66667 12 6.66667H12.2L10.1333 8.73333L12 10.6667L17.3333 5.33333L12 0L10.1333 1.93333L12.2 4H12C10.3333 4 8.772 4.31689 7.316 4.95067C5.86089 5.58356 4.59422 6.43867 3.516 7.516C2.43866 8.59422 1.58311 9.86089 0.949333 11.316C0.316444 12.772 -7.15256e-07 14.3333 -7.15256e-07 16C-7.15256e-07 17.6667 0.316444 19.2276 0.949333 20.6827C1.58311 22.1387 2.43866 23.4053 3.516 24.4827C4.59422 25.5609 5.86089 26.4169 7.316 27.0507C8.772 27.6836 10.3333 28 12 28ZM15.3333 20V18H11.3333V16.6667H15.3333V12H9.33333V14H13.3333V15.3333H10.6667C10.2889 15.3333 9.972 15.4609 9.716 15.716C9.46089 15.972 9.33333 16.2889 9.33333 16.6667V18.6667C9.33333 19.0444 9.46089 19.3609 9.716 19.616C9.972 19.872 10.2889 20 10.6667 20H15.3333Z" fill="#0D2C25"/>
</svg>
