<svg width="22" height="12" viewBox="0 0 22 12" fill="none" xmlns="http://www.w3.org/2000/svg">
<path d="M0.986577 12V10H20.7181V12H0.986577ZM2.12114 5.95L0.838591 5.2L1.67718 3.7H0V2.2H1.67718L0.838591 0.75L2.12114 0L2.95973 1.45L3.79832 0L5.08087 0.75L4.24228 2.2H5.91946V3.7H4.24228L5.08087 5.2L3.79832 5.95L2.95973 4.45L2.12114 5.95ZM10.0138 5.95L8.73121 5.2L9.5698 3.7H7.89262V2.2H9.5698L8.73121 0.75L10.0138 0L10.8523 1.45L11.6909 0L12.9735 0.75L12.1349 2.2H13.8121V3.7H12.1349L12.9735 5.2L11.6909 5.95L10.8523 4.45L10.0138 5.95ZM17.9064 5.95L16.6238 5.2L17.4624 3.7H15.7852V2.2H17.4624L16.6238 0.75L17.9064 0L18.745 1.45L19.5836 0L20.8661 0.75L20.0275 2.2H21.7047V3.7H20.0275L20.8661 5.2L19.5836 5.95L18.745 4.45L17.9064 5.95Z" fill="#0D2C25"/>
</svg>
