<svg width="21" height="21" viewBox="0 0 21 21" fill="none" xmlns="http://www.w3.org/2000/svg">
<path d="M9.45 8.5575L8.505 7.63875C8.295 7.44625 8.04545 7.3542 7.75635 7.3626C7.46795 7.3717 7.2275 7.4725 7.035 7.665C6.8425 7.8575 6.74625 8.1025 6.74625 8.4C6.74625 8.6975 6.8425 8.9425 7.035 9.135L9.765 11.865C9.9575 12.0575 10.2025 12.1537 10.5 12.1537C10.7975 12.1537 11.0425 12.0575 11.235 11.865L13.9912 9.10875C14.1837 8.91625 14.2758 8.67545 14.2674 8.38635C14.2583 8.09795 14.1575 7.8575 13.965 7.665C13.7725 7.4725 13.5275 7.3717 13.23 7.3626C12.9325 7.3542 12.6875 7.455 12.495 7.665L11.55 8.5575V5.22375C11.55 4.92625 11.4495 4.68125 11.2486 4.48875C11.047 4.29625 10.7975 4.2 10.5 4.2C10.2025 4.2 9.9533 4.30045 9.7524 4.50135C9.5508 4.70295 9.45 4.9525 9.45 5.25V8.5575ZM6.3 15.75H14.7262C15.0237 15.75 15.2687 15.6492 15.4612 15.4476C15.6537 15.2467 15.75 14.9975 15.75 14.7C15.75 14.4025 15.6492 14.1529 15.4476 13.9513C15.2467 13.7504 14.9975 13.65 14.7 13.65H6.27375C5.97625 13.65 5.73125 13.7504 5.53875 13.9513C5.34625 14.1529 5.25 14.4025 5.25 14.7C5.25 14.9975 5.35045 15.2467 5.55135 15.4476C5.75295 15.6492 6.0025 15.75 6.3 15.75ZM10.5 21C9.0475 21 7.6825 20.7242 6.405 20.1726C5.1275 19.6217 4.01625 18.8737 3.07125 17.9287C2.12625 16.9837 1.3783 15.8725 0.8274 14.595C0.2758 13.3175 0 11.9525 0 10.5C0 9.0475 0.2758 7.6825 0.8274 6.405C1.3783 5.1275 2.12625 4.01625 3.07125 3.07125C4.01625 2.12625 5.1275 1.37795 6.405 0.82635C7.6825 0.27545 9.0475 0 10.5 0C11.9525 0 13.3175 0.27545 14.595 0.82635C15.8725 1.37795 16.9837 2.12625 17.9287 3.07125C18.8737 4.01625 19.6217 5.1275 20.1726 6.405C20.7242 7.6825 21 9.0475 21 10.5C21 11.9525 20.7242 13.3175 20.1726 14.595C19.6217 15.8725 18.8737 16.9837 17.9287 17.9287C16.9837 18.8737 15.8725 19.6217 14.595 20.1726C13.3175 20.7242 11.9525 21 10.5 21Z" fill="#0D2C25"/>
</svg>
