<svg width="21" height="21" viewBox="0 0 21 21" fill="none" xmlns="http://www.w3.org/2000/svg">
<path d="M9.44994 8.55745L8.50495 7.6387C8.29495 7.4462 8.0454 7.35416 7.7563 7.36256C7.46791 7.37166 7.22746 7.47246 7.03496 7.66495C6.84246 7.85745 6.74621 8.10245 6.74621 8.39995C6.74621 8.69745 6.84246 8.94245 7.03496 9.13495L9.76494 11.8649C9.95744 12.0574 10.2024 12.1537 10.4999 12.1537C10.7974 12.1537 11.0424 12.0574 11.2349 11.8649L13.9912 9.1087C14.1837 8.9162 14.2757 8.6754 14.2673 8.3863C14.2582 8.0979 14.1574 7.85745 13.9649 7.66495C13.7724 7.47246 13.5274 7.37166 13.2299 7.36256C12.9324 7.35416 12.6874 7.45496 12.4949 7.66495L11.5499 8.55745V5.22372C11.5499 4.92622 11.4495 4.68122 11.2486 4.48872C11.047 4.29622 10.7974 4.19997 10.4999 4.19997C10.2024 4.19997 9.95324 4.30042 9.75234 4.50132C9.55074 4.70292 9.44994 4.95247 9.44994 5.24997V8.55745ZM6.29996 15.7499H14.7262C15.0237 15.7499 15.2687 15.6491 15.4612 15.4475C15.6537 15.2466 15.7499 14.9974 15.7499 14.6999C15.7499 14.4024 15.6491 14.1529 15.4475 13.9513C15.2466 13.7504 14.9974 13.6499 14.6999 13.6499H6.27371C5.97621 13.6499 5.73122 13.7504 5.53872 13.9513C5.34622 14.1529 5.24997 14.4024 5.24997 14.6999C5.24997 14.9974 5.35042 15.2466 5.55132 15.4475C5.75292 15.6491 6.00246 15.7499 6.29996 15.7499ZM10.4999 20.9999C9.04745 20.9999 7.68245 20.7241 6.40496 20.1725C5.12747 19.6216 4.01623 18.8736 3.07123 17.9286C2.12624 16.9836 1.37829 15.8724 0.827395 14.5949C0.275798 13.3174 0 11.9524 0 10.4999C0 9.04745 0.275798 7.68245 0.827395 6.40496C1.37829 5.12747 2.12624 4.01623 3.07123 3.07123C4.01623 2.12624 5.12747 1.37794 6.40496 0.826345C7.68245 0.275448 9.04745 0 10.4999 0C11.9524 0 13.3174 0.275448 14.5949 0.826345C15.8724 1.37794 16.9836 2.12624 17.9286 3.07123C18.8736 4.01623 19.6216 5.12747 20.1725 6.40496C20.7241 7.68245 20.9999 9.04745 20.9999 10.4999C20.9999 11.9524 20.7241 13.3174 20.1725 14.5949C19.6216 15.8724 18.8736 16.9836 17.9286 17.9286C16.9836 18.8736 15.8724 19.6216 14.5949 20.1725C13.3174 20.7241 11.9524 20.9999 10.4999 20.9999Z" fill="#0D2C25"/>
</svg>
