<svg width="19" height="18" viewBox="0 0 19 18" fill="none" xmlns="http://www.w3.org/2000/svg">
<path d="M12.8255 10.5C13.253 10.5 13.6065 10.3583 13.8861 10.075C14.1656 9.79167 14.3054 9.43333 14.3054 9C14.3054 8.56667 14.1656 8.20833 13.8861 7.925C13.6065 7.64167 13.253 7.5 12.8255 7.5C12.398 7.5 12.0445 7.64167 11.7649 7.925C11.4854 8.20833 11.3456 8.56667 11.3456 9C11.3456 9.43333 11.4854 9.79167 11.7649 10.075C12.0445 10.3583 12.398 10.5 12.8255 10.5ZM9.86577 14C9.32315 14 8.85881 13.8043 8.47273 13.413C8.08599 13.021 7.89262 12.55 7.89262 12V6C7.89262 5.45 8.08599 4.979 8.47273 4.587C8.85881 4.19567 9.32315 4 9.86577 4H16.7718C17.3144 4 17.7791 4.19567 18.1658 4.587C18.5519 4.979 18.745 5.45 18.745 6V12C18.745 12.55 18.5519 13.021 18.1658 13.413C17.7791 13.8043 17.3144 14 16.7718 14H9.86577ZM1.97315 18C1.43054 18 0.965859 17.8043 0.579121 17.413C0.19304 17.021 0 16.55 0 16V2C0 1.45 0.19304 0.979 0.579121 0.587C0.965859 0.195667 1.43054 0 1.97315 0H15.7852C16.3279 0 16.7925 0.195667 17.1793 0.587C17.5653 0.979 17.7584 1.45 17.7584 2H9.86577C8.69832 2 7.74891 2.37067 7.01752 3.112C6.28548 3.854 5.91946 4.81667 5.91946 6V12C5.91946 13.1833 6.28548 14.1457 7.01752 14.887C7.74891 15.629 8.69832 16 9.86577 16H17.7584C17.7584 16.55 17.5653 17.021 17.1793 17.413C16.7925 17.8043 16.3279 18 15.7852 18H1.97315Z" fill="#0D2C25"/>
</svg>
