<svg width="9" height="15" viewBox="0 0 9 15" fill="none" xmlns="http://www.w3.org/2000/svg">
<path d="M8.07137 0.390681C7.98215 0.298882 7.87616 0.22605 7.75946 0.176355C7.64277 0.126661 7.51767 0.101082 7.39133 0.101082C7.26499 0.101082 7.13989 0.126661 7.0232 0.176355C6.90651 0.22605 6.80051 0.298882 6.71129 0.390681L0.325823 6.94391C0.254588 7.01687 0.198074 7.10352 0.159514 7.19892C0.120954 7.29432 0.101106 7.39659 0.101106 7.49987C0.101106 7.60315 0.120954 7.70542 0.159514 7.80082C0.198074 7.89622 0.254588 7.98287 0.325823 8.05583L6.71129 14.6091C7.08781 14.9955 7.69485 14.9955 8.07137 14.6091C8.44789 14.2226 8.44789 13.5997 8.07137 13.2132L2.5081 7.49593L8.07905 1.77861C8.44789 1.40008 8.44789 0.769207 8.07137 0.390681Z" fill="#1E232C" stroke="#1E232C" stroke-width="0.2"/>
</svg>
