<svg width="16" height="20" viewBox="0 0 16 20" fill="none" xmlns="http://www.w3.org/2000/svg">
<path d="M7.89262 20C5.60705 19.4167 3.72038 18.0873 2.23262 16.012C0.744208 13.9373 0 11.6333 0 9.1V3L7.89262 0L15.7852 3V9.1C15.7852 11.6333 15.0414 13.9373 13.5536 16.012C12.0652 18.0873 10.1782 19.4167 7.89262 20ZM7.89262 17.9C9.60268 17.35 11.0168 16.25 12.1349 14.6C13.253 12.95 13.8121 11.1167 13.8121 9.1V4.375L7.89262 2.125L1.97315 4.375V9.1C1.97315 11.1167 2.53221 12.95 3.65034 14.6C4.76846 16.25 6.18255 17.35 7.89262 17.9Z" fill="#1C1B1F"/>
</svg>
