<svg width="17" height="17" viewBox="0 0 17 17" fill="none" xmlns="http://www.w3.org/2000/svg">
<path d="M5.09999 10.2H11.9V9.73249C11.9 9.10916 11.5883 8.60624 10.965 8.22374C10.3417 7.84124 9.51999 7.64999 8.49999 7.64999C7.47999 7.64999 6.65833 7.84124 6.03499 8.22374C5.41166 8.60624 5.09999 9.10916 5.09999 9.73249V10.2ZM8.49999 6.79999C8.96749 6.79999 9.36784 6.63339 9.70104 6.30019C10.0337 5.96756 10.2 5.56749 10.2 5.09999C10.2 4.63249 10.0337 4.23243 9.70104 3.89979C9.36784 3.5666 8.96749 3.4 8.49999 3.4C8.03249 3.4 7.63242 3.5666 7.29979 3.89979C6.96659 4.23243 6.79999 4.63249 6.79999 5.09999C6.79999 5.56749 6.96659 5.96756 7.29979 6.30019C7.63242 6.63339 8.03249 6.79999 8.49999 6.79999ZM0 17V1.7C0 1.2325 0.1666 0.832149 0.499799 0.498949C0.832432 0.166316 1.2325 0 1.7 0H15.3C15.7675 0 16.1678 0.166316 16.501 0.498949C16.8337 0.832149 17 1.2325 17 1.7V11.9C17 12.3675 16.8337 12.7678 16.501 13.101C16.1678 13.4337 15.7675 13.6 15.3 13.6H3.4L0 17ZM1.7 12.8987L2.69875 11.9H15.3V1.7H1.7V12.8987Z" fill="#0D2C25"/>
</svg>
