<svg width="21" height="21" viewBox="0 0 21 21" fill="none" xmlns="http://www.w3.org/2000/svg">
<path d="M9.02995 12.3899L6.74621 10.1062C6.55371 9.91369 6.31746 9.81744 6.03746 9.81744C5.75747 9.81744 5.51247 9.92244 5.30247 10.1324C5.10997 10.3249 5.01372 10.5699 5.01372 10.8674C5.01372 11.1649 5.10997 11.4099 5.30247 11.6024L8.29495 14.5949C8.48745 14.7874 8.73245 14.8837 9.02995 14.8837C9.32744 14.8837 9.57244 14.7874 9.76494 14.5949L15.7237 8.6362C15.9162 8.4437 16.0124 8.20745 16.0124 7.92745C16.0124 7.64745 15.9074 7.40246 15.6974 7.19246C15.5049 6.99996 15.2599 6.90371 14.9624 6.90371C14.6649 6.90371 14.4199 6.99996 14.2274 7.19246L9.02995 12.3899ZM10.4999 20.9999C9.04745 20.9999 7.68245 20.7241 6.40496 20.1725C5.12747 19.6216 4.01623 18.8736 3.07123 17.9286C2.12624 16.9836 1.37829 15.8724 0.827395 14.5949C0.275798 13.3174 0 11.9524 0 10.4999C0 9.04745 0.275798 7.68245 0.827395 6.40496C1.37829 5.12747 2.12624 4.01623 3.07123 3.07123C4.01623 2.12624 5.12747 1.37794 6.40496 0.826345C7.68245 0.275448 9.04745 0 10.4999 0C11.9524 0 13.3174 0.275448 14.5949 0.826345C15.8724 1.37794 16.9836 2.12624 17.9286 3.07123C18.8736 4.01623 19.6216 5.12747 20.1725 6.40496C20.7241 7.68245 20.9999 9.04745 20.9999 10.4999C20.9999 11.9524 20.7241 13.3174 20.1725 14.5949C19.6216 15.8724 18.8736 16.9836 17.9286 17.9286C16.9836 18.8736 15.8724 19.6216 14.5949 20.1725C13.3174 20.7241 11.9524 20.9999 10.4999 20.9999Z" fill="#0D2C25"/>
</svg>
