<svg width="9" height="15" viewBox="0 0 9 15" fill="none" xmlns="http://www.w3.org/2000/svg">
<path d="M8.07141 0.390683C7.98218 0.298883 7.87619 0.226051 7.7595 0.176356C7.6428 0.126662 7.5177 0.101082 7.39136 0.101082C7.26502 0.101082 7.13992 0.126662 7.02323 0.176356C6.90654 0.226051 6.80054 0.298883 6.71132 0.390683L0.325824 6.94394C0.25459 7.01689 0.198075 7.10355 0.159515 7.19895C0.120955 7.29435 0.101107 7.39662 0.101107 7.4999C0.101107 7.60318 0.120955 7.70545 0.159515 7.80085C0.198075 7.89625 0.25459 7.98291 0.325824 8.05586L6.71132 14.6091C7.08784 14.9955 7.69488 14.9955 8.07141 14.6091C8.44793 14.2227 8.44793 13.5997 8.07141 13.2133L2.50811 7.49596L8.07909 1.77862C8.44793 1.40009 8.44793 0.76921 8.07141 0.390683Z" fill="#1E232C" stroke="#1E232C" stroke-width="0.2"/>
</svg>
