<svg width="9" height="15" viewBox="0 0 9 15" fill="none" xmlns="http://www.w3.org/2000/svg">
<path d="M8.07135 0.390712C7.98212 0.298913 7.87613 0.22608 7.75944 0.176386C7.64275 0.126692 7.51765 0.101112 7.39131 0.101112C7.26497 0.101112 7.13987 0.126692 7.02317 0.176386C6.90648 0.22608 6.80049 0.298913 6.71127 0.390712L0.325798 6.94394C0.254564 7.0169 0.198049 7.10355 0.15949 7.19895C0.12093 7.29435 0.101082 7.39662 0.101082 7.4999C0.101082 7.60318 0.12093 7.70545 0.15949 7.80085C0.198049 7.89625 0.254564 7.9829 0.325798 8.05586L6.71127 14.6091C7.08779 14.9955 7.69483 14.9955 8.07135 14.6091C8.44787 14.2227 8.44787 13.5997 8.07135 13.2133L2.50808 7.49596L8.07903 1.77864C8.44787 1.40011 8.44787 0.769238 8.07135 0.390712Z" fill="#1E232C" stroke="#1E232C" stroke-width="0.2"/>
</svg>
