<svg width="17" height="17" viewBox="0 0 17 17" fill="none" xmlns="http://www.w3.org/2000/svg">
<path d="M7.73499 14.45H9.22249V13.3875C9.93082 13.26 10.54 12.9837 11.05 12.5587C11.56 12.1337 11.815 11.5033 11.815 10.6675C11.815 10.0725 11.645 9.52707 11.305 9.03124C10.965 8.53541 10.285 8.10332 9.26499 7.73499C8.41499 7.45166 7.82707 7.20374 7.50124 6.99124C7.17541 6.77874 7.01249 6.48833 7.01249 6.11999C7.01249 5.75166 7.14367 5.46124 7.40604 5.24874C7.66784 5.03624 8.04666 4.92999 8.54249 4.92999C8.99582 4.92999 9.34999 5.03993 9.60499 5.25979C9.85999 5.47909 10.0442 5.75166 10.1575 6.07749L11.5175 5.52499C11.3617 5.02916 11.0749 4.59708 10.6573 4.22874C10.2391 3.86041 9.77499 3.655 9.26499 3.6125V2.55H7.77749V3.6125C7.06916 3.76833 6.51666 4.07999 6.11999 4.54749C5.72333 5.01499 5.52499 5.53916 5.52499 6.11999C5.52499 6.78582 5.71993 7.32416 6.10979 7.73499C6.49909 8.14582 7.11166 8.49999 7.94749 8.79749C8.83999 9.12332 9.45992 9.41374 9.80729 9.66874C10.1541 9.92374 10.3275 10.2567 10.3275 10.6675C10.3275 11.135 10.1609 11.4784 9.82769 11.6977C9.49506 11.9176 9.09499 12.0275 8.62749 12.0275C8.15999 12.0275 7.74576 11.8821 7.38479 11.5914C7.02326 11.3013 6.75749 10.8658 6.58749 10.285L5.18499 10.8375C5.38333 11.5175 5.69159 12.0666 6.10979 12.4848C6.52742 12.9024 7.06916 13.1892 7.73499 13.345V14.45ZM8.49999 17C7.32416 17 6.21916 16.7767 5.18499 16.3302C4.15083 15.8842 3.25125 15.2787 2.48625 14.5137C1.72125 13.7487 1.11577 12.8492 0.669799 11.815C0.223266 10.7808 0 9.67582 0 8.49999C0 7.32416 0.223266 6.21916 0.669799 5.18499C1.11577 4.15083 1.72125 3.25125 2.48625 2.48625C3.25125 1.72125 4.15083 1.11548 5.18499 0.668949C6.21916 0.222983 7.32416 0 8.49999 0C9.67582 0 10.7808 0.222983 11.815 0.668949C12.8492 1.11548 13.7487 1.72125 14.5137 2.48625C15.2787 3.25125 15.8842 4.15083 16.3302 5.18499C16.7767 6.21916 17 7.32416 17 8.49999C17 9.67582 16.7767 10.7808 16.3302 11.815C15.8842 12.8492 15.2787 13.7487 14.5137 14.5137C13.7487 15.2787 12.8492 15.8842 11.815 16.3302C10.7808 16.7767 9.67582 17 8.49999 17ZM8.49999 15.3C10.3983 15.3 12.0062 14.6412 13.3237 13.3237C14.6412 12.0062 15.3 10.3983 15.3 8.49999C15.3 6.60166 14.6412 4.99374 13.3237 3.67625C12.0062 2.35875 10.3983 1.7 8.49999 1.7C6.60166 1.7 4.99374 2.35875 3.67625 3.67625C2.35875 4.99374 1.7 6.60166 1.7 8.49999C1.7 10.3983 2.35875 12.0062 3.67625 13.3237C4.99374 14.6412 6.60166 15.3 8.49999 15.3Z" fill="#0D2C25"/>
</svg>
