<svg width="22" height="12" viewBox="0 0 22 12" fill="none" xmlns="http://www.w3.org/2000/svg">
<path d="M5.91946 12C4.27517 12 2.87752 11.4167 1.72651 10.25C0.575503 9.08333 0 7.66667 0 6C0 4.33333 0.575503 2.91667 1.72651 1.75C2.87752 0.583333 4.27517 0 5.91946 0H15.7852C17.4295 0 18.8272 0.583333 19.9782 1.75C21.1292 2.91667 21.7047 4.33333 21.7047 6C21.7047 7.66667 21.1292 9.08333 19.9782 10.25C18.8272 11.4167 17.4295 12 15.7852 12H5.91946ZM15.7852 10C16.8705 10 17.7995 9.60833 18.5723 8.825C19.3451 8.04167 19.7315 7.1 19.7315 6C19.7315 4.9 19.3451 3.95833 18.5723 3.175C17.7995 2.39167 16.8705 2 15.7852 2H5.91946C4.83423 2 3.9052 2.39167 3.13238 3.175C2.35956 3.95833 1.97315 4.9 1.97315 6C1.97315 7.1 2.35956 8.04167 3.13238 8.825C3.9052 9.60833 4.83423 10 5.91946 10H15.7852ZM15.7852 9C16.6074 9 17.3062 8.70833 17.8817 8.125C18.4572 7.54167 18.745 6.83333 18.745 6C18.745 5.16667 18.4572 4.45833 17.8817 3.875C17.3062 3.29167 16.6074 3 15.7852 3C14.9631 3 14.2643 3.29167 13.6888 3.875C13.1133 4.45833 12.8255 5.16667 12.8255 6C12.8255 6.83333 13.1133 7.54167 13.6888 8.125C14.2643 8.70833 14.9631 9 15.7852 9Z" fill="#1C1B1F"/>
</svg>
