<svg width="18" height="12" viewBox="0 0 18 12" fill="none" xmlns="http://www.w3.org/2000/svg">
<path d="M1.15317 7.68617C1.94716 3.87336 5.26635 1.16422 9 1.16422C12.7325 1.16422 16.0517 3.87336 16.8468 7.68617C16.8783 7.83747 16.9686 7.97006 17.0979 8.05477C17.2271 8.13949 17.3848 8.16939 17.5361 8.13789C17.6874 8.1064 17.8199 8.01609 17.9047 7.88684C17.9894 7.75758 18.0193 7.59997 17.9878 7.44867C17.0832 3.11196 13.2995 0 9 0C4.70054 0 0.916829 3.11196 0.0122309 7.44867C-0.0192636 7.59997 0.0106344 7.75758 0.0953478 7.88684C0.180061 8.01609 0.312651 8.1064 0.463948 8.13789C0.615245 8.16939 0.772857 8.13949 0.902111 8.05477C1.03136 7.97006 1.12167 7.83747 1.15317 7.68617V7.68617ZM8.98836 3.49266C10.0691 3.49266 11.1055 3.92196 11.8697 4.68613C12.6338 5.4503 13.0631 6.48673 13.0631 7.56742C13.0631 8.64812 12.6338 9.68455 11.8697 10.4487C11.1055 11.2129 10.0691 11.6422 8.98836 11.6422C7.90766 11.6422 6.87123 11.2129 6.10707 10.4487C5.3429 9.68455 4.91359 8.64812 4.91359 7.56742C4.91359 6.48673 5.3429 5.4503 6.10707 4.68613C6.87123 3.92196 7.90766 3.49266 8.98836 3.49266V3.49266Z" fill="#6A707C"/>
</svg>
