<svg width="18" height="19" viewBox="0 0 18 19" fill="none" xmlns="http://www.w3.org/2000/svg">
<path d="M7.62877 11.21L5.6994 9.14375C5.53677 8.96958 5.33718 8.8825 5.10063 8.8825C4.86408 8.8825 4.6571 8.9775 4.47968 9.1675C4.31706 9.34167 4.23574 9.56333 4.23574 9.8325C4.23574 10.1017 4.31706 10.3233 4.47968 10.4975L7.00782 13.205C7.17045 13.3792 7.37743 13.4662 7.62877 13.4662C7.8801 13.4662 8.08709 13.3792 8.24972 13.205L13.2838 7.81375C13.4464 7.63958 13.5278 7.42583 13.5278 7.1725C13.5278 6.91917 13.4391 6.6975 13.2616 6.5075C13.099 6.33333 12.892 6.24625 12.6407 6.24625C12.3894 6.24625 12.1824 6.33333 12.0197 6.5075L7.62877 11.21ZM8.87066 19C7.64355 19 6.49037 18.7505 5.4111 18.2514C4.33184 17.753 3.39303 17.0762 2.59467 16.2212C1.79631 15.3662 1.16442 14.3608 0.699008 13.205C0.233003 12.0492 0 10.8142 0 9.5C0 8.18583 0.233003 6.95083 0.699008 5.795C1.16442 4.63917 1.79631 3.63375 2.59467 2.77875C3.39303 1.92375 4.33184 1.24672 5.4111 0.74765C6.49037 0.249217 7.64355 0 8.87066 0C10.0978 0 11.251 0.249217 12.3302 0.74765C13.4095 1.24672 14.3483 1.92375 15.1467 2.77875C15.945 3.63375 16.5769 4.63917 17.0423 5.795C17.5083 6.95083 17.7413 8.18583 17.7413 9.5C17.7413 10.8142 17.5083 12.0492 17.0423 13.205C16.5769 14.3608 15.945 15.3662 15.1467 16.2212C14.3483 17.0762 13.4095 17.753 12.3302 18.2514C11.251 18.7505 10.0978 19 8.87066 19Z" fill="#0D2C25"/>
</svg>
