<svg width="20" height="17" viewBox="0 0 20 17" fill="none" xmlns="http://www.w3.org/2000/svg">
<path d="M7.89262 8C6.80738 8 5.87836 7.60833 5.10554 6.825C4.33272 6.04167 3.94631 5.1 3.94631 4C3.94631 2.9 4.33272 1.95833 5.10554 1.175C5.87836 0.391667 6.80738 0 7.89262 0C8.97785 0 9.90688 0.391667 10.6797 1.175C11.4525 1.95833 11.8389 2.9 11.8389 4C11.8389 5.1 11.4525 6.04167 10.6797 6.825C9.90688 7.60833 8.97785 8 7.89262 8ZM0 16V13.2C0 12.6333 0.139765 12.1123 0.419295 11.637C0.698825 11.1623 1.08523 10.8 1.57852 10.55C2.5651 10.05 3.58884 9.66667 4.64974 9.4C5.70998 9.13333 6.79094 9 7.89262 9H8.22608C8.33263 9 8.43523 9.01667 8.53389 9.05C8.05705 10.2 7.86368 11.3877 7.95379 12.613C8.04455 13.8377 8.43523 14.9667 9.12584 16H0ZM13.8121 17L13.5161 15.5C13.3188 15.4167 13.1336 15.3293 12.9607 15.238C12.7883 15.146 12.6117 15.0333 12.4309 14.9L11.0003 15.35L10.0138 13.65L11.1483 12.65C11.1154 12.4167 11.099 12.2 11.099 12C11.099 11.8 11.1154 11.5833 11.1483 11.35L10.0138 10.35L11.0003 8.65L12.4309 9.1C12.6117 8.96667 12.7883 8.854 12.9607 8.762C13.1336 8.67067 13.3188 8.58333 13.5161 8.5L13.8121 7H15.7852L16.0812 8.5C16.2785 8.58333 16.4637 8.675 16.6367 8.775C16.809 8.875 16.9856 9 17.1664 9.15L18.597 8.65L19.5836 10.4L18.449 11.4C18.4819 11.6 18.4983 11.8083 18.4983 12.025C18.4983 12.2417 18.4819 12.45 18.449 12.65L19.5836 13.65L18.597 15.35L17.1664 14.9C16.9856 15.0333 16.809 15.146 16.6367 15.238C16.4637 15.3293 16.2785 15.4167 16.0812 15.5L15.7852 17H13.8121ZM14.7987 14C15.3413 14 15.806 13.8043 16.1927 13.413C16.5788 13.021 16.7718 12.55 16.7718 12C16.7718 11.45 16.5788 10.979 16.1927 10.587C15.806 10.1957 15.3413 10 14.7987 10C14.256 10 13.7917 10.1957 13.4056 10.587C13.0189 10.979 12.8255 11.45 12.8255 12C12.8255 12.55 13.0189 13.021 13.4056 13.413C13.7917 13.8043 14.256 14 14.7987 14Z" fill="#0D2C25"/>
</svg>
