<svg width="21" height="21" viewBox="0 0 21 21" fill="none" xmlns="http://www.w3.org/2000/svg">
<path d="M9.02999 12.39L6.74625 10.1062C6.55375 9.91374 6.3175 9.81749 6.0375 9.81749C5.7575 9.81749 5.5125 9.92249 5.3025 10.1325C5.11 10.325 5.01375 10.57 5.01375 10.8675C5.01375 11.165 5.11 11.41 5.3025 11.6025L8.29499 14.595C8.48749 14.7875 8.73249 14.8837 9.02999 14.8837C9.32749 14.8837 9.57249 14.7875 9.76499 14.595L15.7237 8.63624C15.9162 8.44374 16.0125 8.20749 16.0125 7.92749C16.0125 7.64749 15.9075 7.4025 15.6975 7.1925C15.505 7 15.26 6.90375 14.9625 6.90375C14.665 6.90375 14.42 7 14.2275 7.1925L9.02999 12.39ZM10.5 21C9.04749 21 7.6825 20.7242 6.405 20.1726C5.1275 19.6217 4.01625 18.8737 3.07125 17.9287C2.12625 16.9837 1.3783 15.8725 0.8274 14.595C0.2758 13.3175 0 11.9525 0 10.5C0 9.04749 0.2758 7.6825 0.8274 6.405C1.3783 5.1275 2.12625 4.01625 3.07125 3.07125C4.01625 2.12625 5.1275 1.37795 6.405 0.826349C7.6825 0.27545 9.04749 0 10.5 0C11.9525 0 13.3175 0.27545 14.595 0.826349C15.8725 1.37795 16.9837 2.12625 17.9287 3.07125C18.8737 4.01625 19.6217 5.1275 20.1726 6.405C20.7242 7.6825 21 9.04749 21 10.5C21 11.9525 20.7242 13.3175 20.1726 14.595C19.6217 15.8725 18.8737 16.9837 17.9287 17.9287C16.9837 18.8737 15.8725 19.6217 14.595 20.1726C13.3175 20.7242 11.9525 21 10.5 21Z" fill="#0D2C25"/>
</svg>
