<svg width="72" height="72" viewBox="0 0 72 72" fill="none" xmlns="http://www.w3.org/2000/svg">
<path d="M69.4656 35.9993C70.5775 34.7045 71.3567 33.1578 71.7356 31.4936C72.1145 29.8294 72.0816 28.0979 71.6399 26.4493C71.1981 24.8006 70.3607 23.2847 69.2004 22.0329C68.0401 20.7812 66.592 19.8315 64.9815 19.2661C65.2971 17.5887 65.1985 15.8596 64.6945 14.2288C64.1905 12.5981 63.2962 11.1149 62.0892 9.90806C60.8822 8.7012 59.3989 7.80707 57.7681 7.30326C56.1373 6.79944 54.4082 6.70115 52.7308 7.01691C52.1658 5.4061 51.2163 3.95752 49.9645 2.79694C48.7127 1.63637 47.1966 0.798878 45.5478 0.357182C43.8989 -0.0845135 42.1671 -0.117062 40.5028 0.262362C38.8385 0.641786 37.292 1.42171 35.9975 2.53443C34.7026 1.42248 33.156 0.643254 31.4918 0.264354C29.8276 -0.114545 28.0961 -0.0816758 26.4474 0.36011C24.7988 0.801897 23.2829 1.63926 22.0311 2.79955C20.7794 3.95984 19.8296 5.40803 19.2643 7.01847C17.5869 6.70322 15.858 6.80195 14.2275 7.30611C12.5969 7.81026 11.114 8.70461 9.90737 9.91159C8.7007 11.1186 7.80673 12.6017 7.30299 14.2324C6.79925 15.863 6.70096 17.592 7.01664 19.2692C5.4062 19.8346 3.95801 20.7843 2.79772 22.0361C1.63742 23.2878 0.800059 24.8038 0.358273 26.4524C-0.0835136 28.101 -0.116388 29.8325 0.262512 31.4967C0.641412 33.161 1.42065 34.7076 2.5326 36.0025C1.42031 37.2973 0.640834 38.844 0.261826 40.5084C-0.117181 42.1728 -0.0842784 43.9045 0.357701 45.5533C0.799681 47.2021 1.63737 48.7181 2.79806 49.9697C3.95875 51.2214 5.40739 52.1708 7.0182 52.7357C6.70225 54.413 6.80043 56.1421 7.30423 57.7728C7.80803 59.4036 8.70223 60.8867 9.9092 62.0935C11.1162 63.3003 12.5994 64.1943 14.2302 64.6979C15.8611 65.2015 17.5901 65.2995 19.2674 64.9833C19.8328 66.5938 20.7825 68.042 22.0342 69.2022C23.286 70.3625 24.8019 71.1999 26.4506 71.6417C28.0992 72.0835 29.8307 72.1163 31.4949 71.7374C33.1591 71.3585 34.7058 70.5793 36.0006 69.4674C37.2955 70.5797 38.8422 71.3591 40.5066 71.7381C42.171 72.1171 43.9027 72.0842 45.5515 71.6423C47.2002 71.2003 48.7163 70.3626 49.9679 69.2019C51.2195 68.0412 52.169 66.5926 52.7339 64.9818C54.4112 65.2976 56.1403 65.1994 57.7711 64.6956C59.4019 64.1918 60.8851 63.2976 62.092 62.0907C63.2989 60.8838 64.1931 59.4006 64.6969 57.7698C65.2007 56.139 65.2989 54.4099 64.9831 52.7326C66.5936 52.1674 68.0419 51.2176 69.2023 49.9658C70.3626 48.714 71.2 47.198 71.6416 45.5493C72.0833 43.9005 72.1159 42.1689 71.7367 40.5047C71.3575 38.8405 70.5779 37.294 69.4656 35.9993V35.9993Z" fill="#18C07A"/>
<path d="M29.5366 49.7416L19.5325 39.7438C19.1528 39.3635 18.9396 38.8481 18.9396 38.3108C18.9396 37.7734 19.1528 37.258 19.5325 36.8777L20.7479 35.6608C21.1282 35.2811 21.6436 35.0678 22.181 35.0678C22.7183 35.0678 23.2337 35.2811 23.614 35.6608L30.8861 42.9282L48.0126 24.7284C48.3811 24.3374 48.8897 24.1086 49.4267 24.0922C49.9638 24.0758 50.4854 24.2732 50.8771 24.641L52.1253 25.819C52.5168 26.1875 52.7459 26.6965 52.7622 27.2339C52.7786 27.7714 52.5809 28.2933 52.2126 28.6851L32.451 49.6964C32.265 49.8947 32.0409 50.0536 31.7922 50.1635C31.5435 50.2735 31.2753 50.3324 31.0034 50.3366C30.7315 50.3408 30.4615 50.2903 30.2095 50.1881C29.9576 50.0859 29.7287 49.9341 29.5366 49.7416V49.7416Z" fill="white"/>
</svg>
