<svg width="18" height="19" viewBox="0 0 18 19" fill="none" xmlns="http://www.w3.org/2000/svg">
<path d="M7.9836 7.7425L7.18524 6.91125C7.00782 6.73708 6.797 6.6538 6.55276 6.6614C6.30911 6.66963 6.10597 6.76083 5.94334 6.935C5.78071 7.10917 5.6994 7.33083 5.6994 7.6C5.6994 7.86917 5.78071 8.09083 5.94334 8.265L8.24972 10.735C8.41234 10.9092 8.61933 10.9962 8.87066 10.9962C9.122 10.9962 9.32898 10.9092 9.49161 10.735L11.8202 8.24125C11.9828 8.06708 12.0606 7.84922 12.0535 7.58765C12.0458 7.32672 11.9606 7.10917 11.798 6.935C11.6354 6.76083 11.4284 6.66963 11.177 6.6614C10.9257 6.6538 10.7187 6.745 10.5561 6.935L9.75773 7.7425V4.72625C9.75773 4.45708 9.67287 4.23542 9.50314 4.06125C9.33282 3.88708 9.122 3.8 8.87066 3.8C8.61933 3.8 8.4088 3.89088 8.23907 4.07265C8.06875 4.25505 7.9836 4.48083 7.9836 4.75V7.7425ZM5.3224 14.25H12.4411C12.6924 14.25 12.8994 14.1588 13.062 13.9764C13.2247 13.7946 13.306 13.5692 13.306 13.3C13.306 13.0308 13.2208 12.805 13.0505 12.6226C12.8808 12.4409 12.6703 12.35 12.4189 12.35H5.30022C5.04888 12.35 4.8419 12.4409 4.67927 12.6226C4.51665 12.805 4.43533 13.0308 4.43533 13.3C4.43533 13.5692 4.52019 13.7946 4.68992 13.9764C4.86024 14.1588 5.07106 14.25 5.3224 14.25ZM8.87066 19C7.64355 19 6.49037 18.7505 5.4111 18.2514C4.33184 17.753 3.39303 17.0762 2.59467 16.2212C1.79631 15.3662 1.16442 14.3608 0.699008 13.205C0.233003 12.0492 0 10.8142 0 9.5C0 8.18583 0.233003 6.95083 0.699008 5.795C1.16442 4.63917 1.79631 3.63375 2.59467 2.77875C3.39303 1.92375 4.33184 1.24672 5.4111 0.74765C6.49037 0.249217 7.64355 0 8.87066 0C10.0978 0 11.251 0.249217 12.3302 0.74765C13.4095 1.24672 14.3483 1.92375 15.1467 2.77875C15.945 3.63375 16.5769 4.63917 17.0423 5.795C17.5083 6.95083 17.7413 8.18583 17.7413 9.5C17.7413 10.8142 17.5083 12.0492 17.0423 13.205C16.5769 14.3608 15.945 15.3662 15.1467 16.2212C14.3483 17.0762 13.4095 17.753 12.3302 18.2514C11.251 18.7505 10.0978 19 8.87066 19Z" fill="#0D2C25"/>
</svg>
