<svg width="63" height="63" viewBox="0 0 63 63" fill="none" xmlns="http://www.w3.org/2000/svg">
<path d="M23.625 45.675L45.675 31.5L23.625 17.325V45.675ZM31.5 63C27.1425 63 23.0475 62.1726 19.215 60.5178C15.3825 58.8651 12.0488 56.6213 9.21375 53.7863C6.37875 50.9513 4.1349 47.6175 2.4822 43.785C0.8274 39.9525 0 35.8575 0 31.5C0 27.1425 0.8274 23.0475 2.4822 19.215C4.1349 15.3825 6.37875 12.0488 9.21375 9.21375C12.0488 6.37875 15.3825 4.13385 19.215 2.47905C23.0475 0.82635 27.1425 0 31.5 0C35.8575 0 39.9525 0.82635 43.785 2.47905C47.6175 4.13385 50.9513 6.37875 53.7863 9.21375C56.6213 12.0488 58.8651 15.3825 60.5178 19.215C62.1726 23.0475 63 27.1425 63 31.5C63 35.8575 62.1726 39.9525 60.5178 43.785C58.8651 47.6175 56.6213 50.9513 53.7863 53.7863C50.9513 56.6213 47.6175 58.8651 43.785 60.5178C39.9525 62.1726 35.8575 63 31.5 63Z" fill="#0D2C25"/>
</svg>
