<svg width="24" height="28" viewBox="0 0 24 28" fill="none" xmlns="http://www.w3.org/2000/svg">
<path d="M12 28C10.3333 28 8.77244 27.6836 7.31733 27.0507C5.86133 26.4169 4.59467 25.5609 3.51733 24.4827C2.43911 23.4053 1.58311 22.1387 0.949333 20.6827C0.316444 19.2276 0 17.6667 0 16H2.66667C2.66667 18.6 3.57244 20.8053 5.384 22.616C7.19467 24.4276 9.4 25.3333 12 25.3333C14.6 25.3333 16.8053 24.4276 18.616 22.616C20.4276 20.8053 21.3333 18.6 21.3333 16C21.3333 13.4 20.4276 11.1942 18.616 9.38267C16.8053 7.572 14.6 6.66667 12 6.66667H11.8L13.8667 8.73333L12 10.6667L6.66667 5.33333L12 0L13.8667 1.93333L11.8 4H12C13.6667 4 15.228 4.31689 16.684 4.95067C18.1391 5.58356 19.4058 6.43867 20.484 7.516C21.5613 8.59422 22.4169 9.86089 23.0507 11.316C23.6836 12.772 24 14.3333 24 16C24 17.6667 23.6836 19.2276 23.0507 20.6827C22.4169 22.1387 21.5613 23.4053 20.484 24.4827C19.4058 25.5609 18.1391 26.4169 16.684 27.0507C15.228 27.6836 13.6667 28 12 28ZM8 20V14H6V12H10V20H8ZM12.6667 20C12.2889 20 11.9724 19.872 11.7173 19.616C11.4613 19.3609 11.3333 19.0444 11.3333 18.6667V13.3333C11.3333 12.9556 11.4613 12.6387 11.7173 12.3827C11.9724 12.1276 12.2889 12 12.6667 12H15.3333C15.7111 12 16.028 12.1276 16.284 12.3827C16.5391 12.6387 16.6667 12.9556 16.6667 13.3333V18.6667C16.6667 19.0444 16.5391 19.3609 16.284 19.616C16.028 19.872 15.7111 20 15.3333 20H12.6667ZM13.3333 18H14.6667V14H13.3333V18Z" fill="#0D2C25"/>
</svg>
